<?xml version="1.0" standalone="no"?>
<!DOCTYPE svg PUBLIC "-//W3C//DTD SVG 20010904//EN"
 "http://www.w3.org/TR/2001/REC-SVG-20010904/DTD/svg10.dtd">
<svg version="1.0" xmlns="http://www.w3.org/2000/svg"
 width="13797.000000pt" height="8559.000000pt" viewBox="0 0 13797.000000 8559.000000"
 preserveAspectRatio="xMidYMid meet">

<g transform="translate(0.000000,8559.000000) scale(0.100000,-0.100000)"
fill="#000000" stroke="none">
<path d="M28710 80920 c0 -6 -59 -10 -165 -10 -93 0 -165 -4 -165 -9 0 -5 -48
-11 -107 -14 -60 -3 -144 -10 -188 -16 -44 -6 -168 -15 -275 -21 -107 -5 -226
-14 -265 -20 -154 -22 -213 -33 -270 -47 -33 -8 -76 -18 -95 -23 -19 -4 -55
-15 -80 -24 -25 -10 -76 -28 -115 -42 -68 -23 -101 -37 -137 -55 -10 -5 -25
-9 -33 -9 -8 0 -15 -4 -15 -9 0 -11 -56 -41 -77 -41 -7 0 -13 -4 -13 -8 0 -5
-12 -14 -26 -21 -15 -6 -46 -27 -69 -46 -23 -19 -48 -35 -56 -35 -27 0 -159
-120 -209 -189 -24 -34 -89 -110 -137 -162 -13 -14 -30 -35 -36 -46 -21 -37
-90 -167 -101 -190 -6 -13 -14 -23 -18 -23 -5 0 -8 -7 -8 -15 0 -18 -52 -129
-62 -133 -5 -2 -8 -10 -8 -18 0 -8 -9 -33 -19 -57 -11 -23 -25 -60 -32 -82 -7
-22 -17 -44 -21 -50 -4 -5 -8 -17 -8 -26 0 -9 -7 -22 -15 -29 -8 -7 -15 -18
-15 -25 0 -7 -18 -45 -40 -85 -22 -40 -40 -79 -40 -86 0 -8 -4 -14 -9 -14 -5
0 -35 -53 -66 -117 -31 -65 -63 -130 -71 -145 -8 -14 -14 -31 -14 -38 0 -6
-13 -31 -30 -55 -16 -24 -30 -49 -30 -55 0 -7 -13 -30 -29 -53 -16 -23 -48
-75 -72 -116 -68 -114 -82 -137 -109 -172 -49 -64 -75 -94 -87 -102 -7 -4 -13
-14 -13 -21 0 -7 -10 -24 -23 -37 -13 -13 -38 -49 -57 -79 -19 -30 -38 -56
-42 -58 -5 -2 -8 -12 -8 -22 0 -10 -3 -20 -7 -22 -11 -4 -59 -104 -74 -153 -7
-22 -16 -44 -20 -50 -3 -5 -16 -44 -28 -85 -12 -41 -29 -90 -37 -108 -8 -18
-14 -41 -14 -52 0 -10 -4 -22 -10 -25 -5 -3 -10 -14 -10 -25 0 -10 -9 -35 -19
-57 -52 -106 -90 -192 -102 -228 -13 -46 -27 -82 -40 -107 -5 -10 -9 -26 -9
-37 0 -11 -7 -32 -14 -48 -8 -15 -30 -59 -48 -98 -18 -38 -36 -71 -40 -73 -5
-2 -8 -11 -8 -21 0 -9 -6 -25 -14 -36 -7 -11 -17 -31 -21 -45 -20 -64 -98
-210 -117 -218 -5 -2 -8 -8 -8 -13 0 -8 -18 -33 -46 -63 -5 -6 -13 -18 -17
-26 -4 -8 -18 -33 -31 -55 -48 -80 -89 -173 -111 -251 -9 -32 -20 -68 -25 -79
-5 -11 -14 -38 -21 -60 -6 -22 -15 -48 -20 -57 -5 -10 -9 -27 -9 -37 0 -11 -4
-22 -9 -25 -4 -3 -18 -36 -31 -73 -12 -37 -29 -84 -37 -103 -8 -19 -19 -44
-23 -55 -4 -11 -17 -40 -28 -65 -32 -73 -52 -138 -101 -330 -50 -192 -62 -233
-83 -280 -11 -25 -25 -56 -31 -70 -5 -14 -13 -32 -18 -40 -5 -8 -12 -23 -15
-32 -4 -10 -10 -18 -15 -18 -5 0 -9 -7 -9 -15 0 -15 -16 -47 -36 -75 -7 -8
-15 -26 -19 -40 -4 -14 -13 -32 -20 -40 -7 -8 -20 -37 -28 -65 -8 -27 -43
-107 -76 -177 -34 -70 -61 -132 -61 -138 0 -5 -4 -10 -10 -10 -5 0 -10 -4 -10
-10 0 -5 -25 -50 -55 -101 -30 -50 -55 -94 -55 -96 0 -4 -82 -122 -107 -153
-105 -133 -160 -247 -211 -435 -45 -167 -57 -208 -79 -270 -13 -38 -33 -87
-44 -108 -10 -22 -19 -43 -19 -48 0 -9 -67 -118 -111 -181 -10 -15 -19 -32
-19 -37 0 -5 -6 -22 -14 -38 -8 -15 -19 -39 -24 -53 -5 -14 -24 -55 -41 -91
-17 -37 -31 -73 -31 -82 0 -8 -6 -17 -14 -20 -7 -3 -16 -21 -20 -40 -4 -20
-10 -37 -14 -39 -8 -4 -52 -103 -59 -135 -3 -13 -9 -23 -13 -23 -5 0 -14 -16
-20 -36 -7 -19 -33 -77 -60 -127 -73 -142 -92 -180 -100 -202 -4 -11 -13 -33
-19 -48 -6 -15 -11 -36 -11 -45 0 -9 -11 -55 -26 -102 -14 -47 -29 -101 -34
-120 -30 -124 -64 -236 -85 -285 -8 -16 -20 -46 -28 -65 -8 -19 -24 -55 -35
-80 -37 -84 -79 -185 -92 -220 -6 -19 -16 -44 -20 -55 -4 -11 -14 -40 -21 -65
-7 -25 -19 -58 -27 -75 -8 -16 -19 -38 -23 -47 -5 -10 -9 -24 -9 -32 0 -8 -10
-34 -21 -58 -12 -23 -27 -54 -32 -68 -25 -58 -95 -171 -159 -254 -37 -50 -68
-96 -68 -103 0 -7 -3 -13 -8 -13 -7 0 -25 -30 -38 -62 -3 -10 -10 -18 -15 -18
-5 0 -9 -6 -9 -12 0 -7 -10 -33 -22 -58 -12 -25 -25 -54 -29 -65 -4 -11 -23
-57 -43 -102 -20 -45 -36 -87 -36 -93 0 -21 -143 -318 -160 -330 -6 -5 -44
-83 -88 -180 -11 -25 -44 -117 -73 -205 -29 -88 -58 -167 -66 -176 -7 -8 -13
-25 -13 -37 0 -12 -4 -22 -10 -22 -5 0 -10 -6 -10 -14 0 -8 -3 -16 -7 -18 -5
-1 -15 -19 -24 -38 -9 -19 -22 -48 -30 -65 -8 -16 -22 -37 -31 -46 -10 -9 -18
-25 -18 -35 0 -11 -9 -26 -20 -34 -11 -8 -20 -21 -20 -30 0 -8 -9 -30 -20 -48
-11 -18 -20 -39 -20 -47 0 -8 -4 -15 -9 -15 -12 0 -112 -211 -156 -330 -18
-48 -25 -65 -47 -120 -8 -19 -30 -71 -48 -115 -18 -44 -39 -91 -47 -105 -8
-14 -19 -37 -24 -52 -6 -16 -14 -28 -19 -28 -4 0 -10 -10 -13 -22 -3 -13 -17
-55 -31 -94 -15 -39 -33 -100 -40 -135 -14 -62 -34 -149 -78 -329 -11 -47 -24
-89 -29 -95 -5 -5 -9 -17 -9 -26 0 -10 -6 -30 -14 -46 -8 -15 -25 -50 -38 -78
-13 -27 -26 -51 -30 -53 -5 -2 -8 -12 -8 -22 0 -10 -4 -20 -8 -22 -11 -4 -62
-98 -62 -114 0 -8 -4 -14 -10 -14 -5 0 -10 -5 -10 -10 0 -12 -71 -163 -80
-170 -3 -3 -12 -21 -20 -40 -22 -53 -122 -235 -131 -238 -5 -2 -9 -10 -9 -17
0 -13 -37 -84 -50 -95 -12 -11 -127 -198 -147 -240 -20 -41 -37 -89 -78 -220
-7 -25 -21 -76 -30 -115 -33 -139 -105 -334 -127 -343 -5 -2 -8 -10 -8 -19 0
-8 -15 -35 -32 -61 -44 -63 -78 -125 -144 -262 -93 -193 -104 -217 -104 -228
0 -6 -6 -17 -12 -24 -20 -21 -38 -56 -38 -73 0 -8 -3 -15 -8 -15 -4 0 -13 -15
-21 -32 -8 -18 -17 -35 -21 -38 -3 -3 -14 -23 -24 -44 -10 -22 -22 -45 -27
-50 -19 -25 -115 -173 -127 -196 -6 -14 -16 -32 -21 -40 -31 -53 -81 -207
-121 -375 -25 -104 -88 -306 -101 -320 -5 -5 -9 -17 -9 -27 0 -10 -4 -18 -10
-18 -5 0 -10 -8 -10 -17 0 -9 -6 -24 -13 -32 -8 -9 -31 -56 -52 -106 -21 -49
-51 -118 -66 -153 -16 -34 -29 -67 -29 -72 0 -5 -8 -24 -18 -42 -10 -18 -29
-60 -42 -93 -13 -33 -33 -76 -45 -95 -11 -19 -32 -57 -45 -85 -14 -27 -35 -61
-47 -75 -13 -13 -23 -30 -23 -37 0 -6 -3 -13 -7 -15 -5 -1 -35 -39 -68 -83
-33 -44 -63 -81 -67 -83 -5 -2 -8 -10 -8 -19 0 -8 -8 -27 -19 -41 -10 -15 -22
-37 -25 -49 -4 -13 -11 -23 -16 -23 -4 0 -10 -12 -13 -27 -3 -16 -17 -59 -31
-98 -14 -38 -26 -78 -26 -88 0 -9 -4 -25 -9 -35 -5 -9 -16 -44 -26 -77 -9 -33
-21 -69 -26 -80 -4 -11 -13 -38 -20 -60 -18 -60 -23 -72 -75 -178 -26 -54 -51
-100 -56 -103 -4 -3 -8 -12 -8 -20 0 -8 -15 -47 -34 -87 -18 -40 -41 -93 -49
-117 -31 -92 -64 -176 -78 -200 -5 -8 -12 -22 -15 -30 -9 -23 -44 -101 -65
-143 -11 -22 -19 -43 -19 -49 0 -5 -6 -15 -12 -22 -7 -8 -18 -22 -25 -32 -7
-11 -40 -62 -75 -114 -91 -137 -170 -308 -198 -430 -13 -53 -26 -100 -45 -155
-9 -27 -20 -66 -25 -85 -12 -53 -61 -183 -75 -200 -7 -8 -15 -24 -18 -35 -3
-11 -21 -65 -40 -120 -18 -55 -42 -127 -52 -160 -10 -33 -27 -87 -37 -120 -10
-33 -23 -76 -29 -95 -15 -47 -39 -104 -71 -169 -16 -30 -28 -59 -28 -63 0 -8
-97 -157 -120 -185 -5 -7 -10 -15 -10 -17 0 -3 -15 -29 -33 -58 -18 -29 -39
-66 -47 -83 -8 -16 -22 -42 -32 -57 -10 -14 -18 -33 -18 -42 0 -9 -4 -16 -10
-16 -5 0 -10 -9 -10 -19 0 -11 -4 -21 -8 -23 -10 -3 -102 -193 -102 -208 0 -6
-4 -10 -8 -10 -4 0 -25 -37 -47 -82 -21 -46 -46 -91 -54 -100 -9 -9 -25 -34
-36 -55 -10 -21 -32 -57 -47 -81 -15 -24 -28 -49 -28 -56 0 -6 -4 -16 -9 -21
-5 -6 -19 -37 -31 -70 -21 -56 -28 -81 -49 -172 -4 -21 -21 -83 -36 -138 -15
-55 -30 -112 -33 -128 -2 -15 -8 -30 -13 -33 -5 -3 -9 -12 -9 -20 0 -16 -30
-89 -60 -144 -64 -120 -168 -339 -191 -400 -18 -51 -145 -308 -174 -355 -14
-22 -28 -48 -32 -57 -3 -10 -9 -18 -14 -18 -5 0 -9 -5 -9 -10 0 -9 -47 -88
-60 -100 -3 -3 -16 -27 -30 -55 -14 -27 -27 -52 -30 -55 -9 -8 -40 -77 -40
-89 0 -6 -4 -19 -9 -29 -14 -27 -43 -114 -51 -152 -13 -63 -49 -190 -56 -202
-4 -6 -11 -28 -15 -47 -7 -36 -32 -110 -55 -166 -7 -16 -16 -42 -19 -57 -4
-16 -11 -28 -15 -28 -5 0 -12 -10 -15 -22 -4 -13 -15 -42 -26 -65 -10 -24 -19
-51 -19 -61 0 -10 -4 -22 -8 -27 -5 -6 -14 -30 -21 -55 -7 -25 -19 -61 -26
-80 -8 -19 -18 -51 -24 -70 -35 -129 -53 -175 -119 -310 -49 -100 -53 -106
-89 -145 -13 -13 -23 -27 -23 -30 0 -3 -15 -21 -32 -40 -59 -62 -78 -84 -78
-90 0 -3 -14 -20 -31 -37 -17 -18 -38 -45 -47 -60 -9 -16 -19 -28 -22 -28 -4
0 -17 -24 -31 -52 -13 -29 -27 -57 -32 -63 -33 -43 -91 -153 -128 -242 -8 -18
-17 -33 -20 -33 -3 0 -14 -21 -24 -47 -10 -27 -25 -59 -34 -73 -9 -14 -23 -38
-31 -55 -8 -16 -24 -44 -35 -61 -11 -17 -31 -64 -44 -105 -13 -41 -28 -83 -32
-94 -4 -11 -10 -36 -13 -55 -4 -19 -13 -48 -21 -64 -8 -15 -15 -34 -15 -42 0
-7 -6 -33 -14 -56 -7 -24 -19 -77 -26 -118 -14 -83 -77 -283 -91 -288 -5 -2
-9 -9 -9 -15 0 -7 -9 -23 -20 -37 -11 -14 -20 -35 -20 -48 0 -12 -6 -25 -14
-28 -8 -3 -19 -25 -26 -50 -7 -24 -16 -44 -20 -44 -4 0 -12 -10 -19 -22 -6
-13 -20 -36 -31 -53 -18 -28 -119 -229 -176 -352 -13 -28 -24 -58 -24 -65 0
-8 -4 -18 -8 -24 -5 -5 -15 -25 -22 -44 -7 -19 -28 -69 -47 -110 -19 -41 -39
-84 -43 -95 -4 -11 -20 -46 -34 -78 -14 -32 -26 -65 -26 -75 0 -9 -8 -37 -16
-62 -9 -25 -20 -58 -24 -75 -45 -168 -63 -222 -111 -332 -11 -24 -19 -48 -20
-55 0 -7 -9 -26 -20 -43 -10 -16 -22 -37 -26 -45 -3 -8 -9 -17 -12 -20 -4 -3
-17 -27 -31 -55 -14 -27 -27 -52 -30 -55 -14 -14 -53 -89 -87 -170 -8 -19 -27
-62 -43 -95 -15 -33 -40 -87 -55 -120 -15 -33 -31 -68 -36 -77 -5 -10 -9 -25
-9 -33 0 -8 -4 -15 -8 -15 -9 0 -42 -70 -42 -88 0 -7 -4 -12 -8 -12 -5 0 -14
-16 -22 -35 -8 -19 -17 -35 -22 -35 -4 0 -8 -5 -8 -11 0 -11 -50 -82 -62 -87
-5 -2 -8 -9 -8 -16 0 -7 -9 -21 -20 -31 -11 -10 -20 -24 -20 -32 0 -7 -4 -13
-10 -13 -5 0 -10 -7 -10 -15 0 -9 -7 -18 -15 -21 -8 -4 -15 -13 -15 -20 0 -8
-13 -41 -30 -74 -16 -33 -30 -69 -30 -80 0 -11 -4 -20 -9 -20 -4 0 -11 -19
-14 -42 -3 -24 -11 -44 -16 -46 -6 -2 -11 -15 -11 -28 0 -13 -4 -32 -9 -42 -6
-9 -24 -64 -41 -122 -18 -58 -36 -112 -41 -120 -5 -8 -22 -40 -37 -70 -43 -84
-69 -124 -92 -140 -11 -8 -20 -22 -20 -31 0 -9 -6 -22 -14 -28 -7 -6 -21 -33
-31 -59 -10 -26 -22 -51 -26 -56 -5 -6 -9 -18 -9 -28 0 -10 -4 -18 -10 -18 -5
0 -10 -5 -10 -12 0 -7 -15 -46 -34 -88 -19 -41 -43 -96 -53 -122 -10 -27 -21
-48 -25 -48 -5 0 -8 -6 -8 -13 0 -7 -9 -32 -20 -55 -11 -22 -20 -46 -20 -52 0
-5 -4 -10 -8 -10 -5 0 -15 -18 -22 -41 -8 -23 -19 -43 -26 -46 -6 -2 -24 -30
-38 -61 -15 -31 -44 -84 -64 -117 -56 -91 -102 -212 -141 -370 -5 -22 -19 -74
-30 -117 -12 -42 -21 -84 -21 -94 0 -22 -66 -216 -91 -268 -10 -22 -19 -45
-19 -51 0 -6 -11 -33 -24 -61 -24 -50 -27 -59 -67 -194 -12 -41 -28 -94 -35
-118 -8 -23 -14 -49 -14 -57 0 -9 -4 -23 -9 -33 -5 -9 -20 -44 -32 -77 -35
-94 -82 -191 -100 -205 -3 -3 -13 -18 -22 -35 -8 -16 -38 -55 -66 -87 -28 -31
-51 -60 -51 -65 0 -5 -9 -15 -20 -23 -11 -8 -20 -20 -20 -26 0 -7 -3 -14 -7
-16 -24 -10 -111 -195 -159 -338 -8 -25 -19 -54 -23 -65 -26 -61 -31 -77 -31
-90 0 -14 -51 -129 -93 -210 -11 -22 -25 -49 -30 -60 -6 -11 -14 -27 -18 -35
-21 -38 -58 -121 -64 -142 -4 -12 -20 -51 -36 -86 -16 -35 -29 -68 -29 -73 0
-5 -4 -9 -10 -9 -5 0 -10 -7 -10 -15 0 -8 -4 -15 -8 -15 -5 0 -37 -57 -71
-127 -67 -136 -132 -243 -168 -281 -13 -13 -23 -27 -23 -31 0 -4 -11 -21 -25
-37 -14 -16 -28 -37 -31 -46 -3 -10 -10 -18 -15 -18 -5 0 -9 -9 -9 -19 0 -10
-14 -45 -30 -76 -18 -34 -30 -72 -30 -94 0 -20 -5 -42 -11 -48 -10 -10 -46
-136 -86 -303 -16 -70 -49 -162 -74 -212 -5 -10 -9 -22 -9 -28 0 -9 -17 -51
-55 -135 -7 -16 -18 -46 -24 -65 -25 -87 -44 -158 -50 -195 -5 -22 -22 -81
-39 -132 -18 -50 -32 -100 -32 -110 0 -10 -14 -40 -30 -68 -16 -27 -30 -57
-30 -66 0 -9 -7 -22 -15 -29 -9 -7 -25 -35 -37 -62 -11 -26 -24 -48 -29 -48
-5 0 -9 -7 -9 -16 0 -21 -13 -50 -138 -304 -58 -118 -115 -229 -128 -246 -13
-18 -31 -50 -40 -73 -9 -22 -19 -41 -23 -41 -4 0 -16 -18 -27 -40 -10 -22 -22
-40 -26 -40 -4 0 -15 -14 -23 -30 -15 -29 -35 -56 -62 -85 -7 -8 -13 -18 -13
-23 0 -5 -7 -15 -15 -22 -8 -7 -28 -40 -43 -74 -72 -153 -82 -177 -82 -188 0
-6 -13 -48 -28 -92 -16 -45 -34 -99 -41 -121 -7 -22 -19 -58 -28 -80 -8 -22
-19 -49 -23 -60 -22 -56 -41 -93 -64 -124 -14 -19 -26 -40 -26 -47 0 -6 -7
-14 -15 -18 -8 -3 -15 -12 -15 -21 0 -8 -4 -15 -9 -15 -10 0 -118 -214 -127
-252 -3 -16 -10 -28 -14 -28 -4 0 -11 -16 -14 -35 -4 -19 -18 -54 -31 -77 -14
-24 -25 -49 -25 -56 0 -16 -164 -350 -194 -395 -25 -38 -97 -185 -119 -242
-16 -44 -52 -165 -60 -205 -8 -41 -67 -243 -77 -265 -5 -11 -18 -48 -30 -83
-12 -35 -42 -106 -66 -158 -24 -53 -44 -106 -44 -119 0 -13 -3 -25 -8 -27 -9
-4 -52 -129 -52 -152 0 -9 -4 -16 -9 -16 -5 0 -12 -15 -16 -33 -3 -17 -10 -41
-15 -52 -5 -11 -23 -63 -40 -115 -18 -52 -38 -105 -46 -117 -8 -12 -14 -27
-14 -33 0 -6 -9 -20 -20 -32 -11 -12 -20 -28 -20 -35 0 -7 -4 -13 -10 -13 -5
0 -10 -8 -10 -18 0 -9 -23 -42 -50 -72 -28 -30 -50 -60 -50 -66 0 -6 -18 -28
-40 -50 -22 -21 -40 -44 -40 -50 0 -5 -8 -19 -18 -30 -10 -10 -31 -44 -48 -74
-16 -30 -32 -57 -35 -60 -3 -3 -8 -14 -12 -25 -3 -11 -22 -65 -42 -120 -20
-55 -45 -123 -54 -152 -9 -29 -20 -55 -24 -59 -4 -4 -7 -13 -7 -21 0 -7 -9
-32 -19 -56 -10 -23 -21 -49 -25 -57 -3 -8 -19 -37 -36 -65 -16 -27 -39 -70
-50 -95 -11 -25 -24 -53 -30 -62 -5 -10 -10 -27 -10 -37 0 -11 -5 -23 -10 -26
-12 -8 -150 -294 -150 -312 0 -21 -82 -173 -113 -207 -9 -11 -17 -24 -17 -28
0 -8 -45 -60 -108 -124 -12 -13 -22 -30 -22 -39 0 -8 -4 -15 -10 -15 -5 0 -10
-7 -10 -15 0 -8 -4 -15 -10 -15 -5 0 -10 -6 -10 -14 0 -7 -7 -19 -15 -26 -8
-7 -20 -30 -25 -51 -6 -22 -15 -39 -20 -39 -6 0 -10 -15 -10 -34 0 -19 -3 -36
-7 -38 -12 -5 -43 -68 -43 -87 0 -9 -4 -21 -8 -27 -5 -5 -14 -29 -21 -54 -6
-25 -16 -54 -20 -65 -5 -11 -15 -40 -22 -65 -7 -25 -23 -74 -37 -110 -43 -115
-59 -164 -82 -240 -13 -41 -29 -93 -36 -115 -8 -23 -14 -51 -14 -63 0 -23 -7
-58 -39 -193 -12 -48 -21 -101 -21 -118 0 -17 -4 -31 -9 -31 -5 0 -11 -18 -15
-40 -3 -22 -10 -40 -14 -40 -4 0 -14 -21 -21 -48 -22 -79 -35 -112 -43 -112
-4 0 -8 -7 -8 -15 0 -8 -11 -36 -24 -63 -43 -87 -66 -142 -66 -162 0 -10 -5
-22 -10 -25 -6 -3 -10 -15 -10 -26 0 -17 -5 -30 -31 -79 -27 -50 -59 -124 -59
-136 0 -8 -4 -14 -10 -14 -5 0 -10 -8 -11 -17 0 -10 -9 -31 -19 -48 -10 -16
-31 -55 -46 -85 -16 -30 -31 -57 -34 -60 -3 -3 -14 -22 -23 -42 -10 -21 -22
-38 -27 -38 -6 0 -10 -6 -10 -13 0 -7 -9 -23 -20 -35 -11 -12 -20 -24 -20 -29
0 -6 -48 -81 -60 -93 -6 -6 -30 -48 -40 -70 -4 -8 -21 -43 -39 -76 -17 -34
-31 -71 -31 -82 0 -11 -6 -27 -13 -34 -7 -7 -16 -22 -19 -33 -17 -54 -66 -186
-71 -192 -4 -3 -7 -16 -7 -27 0 -12 -6 -30 -14 -41 -7 -11 -23 -49 -35 -85
-12 -36 -26 -74 -31 -85 -4 -11 -14 -36 -21 -55 -6 -19 -32 -71 -56 -116 -23
-45 -43 -88 -43 -98 0 -9 -4 -16 -10 -16 -5 0 -10 -9 -10 -21 0 -11 -5 -30
-12 -42 -12 -24 -13 -28 -62 -243 -62 -271 -59 -512 10 -794 21 -85 41 -157
45 -160 4 -3 12 -24 18 -46 6 -23 18 -47 26 -54 8 -7 15 -19 15 -27 0 -8 6
-21 12 -28 7 -8 22 -26 33 -40 11 -14 28 -36 38 -48 10 -12 28 -35 40 -50 59
-77 168 -179 267 -248 120 -85 409 -218 473 -219 9 0 17 -4 17 -9 0 -24 256
-52 660 -71 124 -6 245 -15 270 -21 88 -19 923 -37 1265 -27 210 7 586 6 1090
-1 1104 -16 2808 -17 2965 -2 69 7 175 16 235 20 299 23 415 54 691 182 34 16
67 29 73 29 6 0 11 4 11 9 0 5 10 13 23 17 12 4 41 20 64 35 23 16 45 29 50
29 4 0 21 11 37 25 16 14 37 25 46 25 9 0 25 9 34 19 10 11 31 25 47 31 16 7
29 16 29 21 0 5 4 9 9 9 17 0 80 45 81 57 0 6 9 14 19 18 33 10 155 137 181
188 14 26 28 47 32 47 5 0 8 5 8 12 0 6 11 26 25 44 14 18 25 37 25 43 0 6 5
11 10 11 6 0 10 7 10 15 0 8 4 15 8 15 5 0 17 18 27 40 10 22 26 47 36 56 11
10 19 21 19 26 0 5 16 33 35 62 19 29 35 57 35 62 1 5 14 25 30 44 17 19 30
40 30 47 0 7 4 13 9 13 5 0 12 8 16 19 3 10 13 28 23 39 9 11 26 33 37 48 11
15 39 52 63 82 23 30 42 58 42 63 0 5 7 9 15 9 8 0 15 5 15 12 0 6 7 19 16 29
18 20 47 71 64 112 7 15 16 27 21 27 5 0 9 7 9 15 0 8 3 15 8 15 4 0 14 15 21
33 8 17 23 39 33 48 10 9 18 23 18 31 0 8 11 32 25 52 14 20 25 41 25 46 0 5
9 25 20 45 11 20 20 40 20 46 0 15 73 163 82 167 4 2 8 8 8 14 0 5 25 45 55
88 30 43 55 83 55 89 0 6 5 11 10 11 6 0 10 9 10 19 0 11 4 23 10 26 5 3 10
15 10 25 0 10 6 25 13 32 7 7 19 32 26 56 8 23 17 42 21 42 4 0 10 10 13 23 6
22 27 84 66 187 12 30 21 63 21 72 0 18 4 28 28 75 7 13 12 30 12 39 0 24 41
136 57 155 7 8 13 22 13 29 0 12 28 80 51 122 5 10 9 24 9 32 0 7 9 35 19 62
18 44 31 88 63 209 23 85 31 112 54 170 13 33 24 66 24 73 0 6 3 12 8 12 10 0
32 50 32 72 0 10 5 18 10 18 6 0 10 7 10 15 0 8 3 15 8 15 4 0 15 17 25 38 10
20 51 100 90 177 96 185 168 325 180 350 93 187 183 346 199 353 5 2 8 8 8 13
0 5 21 36 48 70 57 74 75 102 103 157 12 23 25 45 30 48 5 3 9 12 9 21 0 8 9
27 20 42 10 16 26 50 35 77 16 48 103 234 114 244 3 3 11 14 17 25 28 51 39
70 45 75 3 3 19 32 34 65 16 33 33 62 37 63 4 2 8 8 8 14 0 6 16 32 35 58 20
27 41 63 47 82 6 18 19 45 30 60 10 14 18 29 18 33 0 3 7 13 15 21 8 9 15 24
15 35 0 10 5 19 10 19 6 0 10 6 10 13 0 7 9 32 20 55 11 22 20 48 20 57 0 9 9
33 19 53 10 20 24 53 31 72 21 63 45 125 50 130 10 10 28 55 40 100 12 46 15
52 55 124 33 60 81 208 104 321 26 130 31 159 31 189 0 36 42 233 60 286 26
72 49 127 76 184 8 16 14 37 14 46 0 10 6 23 14 29 8 7 17 26 20 44 3 18 12
43 19 57 7 14 19 46 26 73 8 26 18 50 22 53 5 3 9 12 9 21 0 9 11 39 23 67 13
28 39 86 58 129 19 42 44 88 57 102 12 13 22 28 22 32 0 4 19 33 43 64 37 50
65 83 169 203 15 17 48 69 73 116 25 47 49 92 54 100 25 48 31 62 31 80 0 11
5 20 10 20 6 0 10 7 10 16 0 8 12 41 26 72 14 31 29 66 34 77 16 41 112 232
150 300 22 39 49 91 61 118 12 26 24 47 28 47 17 0 101 213 101 256 0 11 4 24
8 30 5 5 20 43 32 84 13 41 48 122 78 180 30 58 60 115 66 127 6 13 17 23 24
23 6 0 12 11 12 25 0 14 3 25 8 25 8 0 32 71 32 95 0 8 5 15 10 15 6 0 10 8
10 18 0 17 23 88 39 120 13 27 43 114 51 152 4 19 15 58 25 85 9 28 21 64 27
80 34 106 49 143 91 235 18 41 40 91 46 110 7 19 17 44 22 55 16 38 39 116 39
133 1 9 8 35 16 57 9 22 24 74 33 115 10 41 26 98 35 125 9 28 21 66 27 85 11
38 26 72 58 138 11 24 21 50 21 58 0 8 4 14 8 14 5 0 19 24 31 53 12 28 27 59
32 67 5 8 14 25 19 38 5 13 20 47 33 75 13 29 29 68 36 87 8 19 24 58 36 85
13 28 34 77 46 110 13 33 32 74 44 90 11 17 31 54 44 83 14 28 27 52 30 52 3
0 13 15 20 33 8 17 25 43 38 57 13 14 23 29 23 35 0 6 9 17 20 25 11 8 20 19
20 25 0 6 8 20 18 31 28 30 112 211 112 241 0 8 6 29 14 46 7 18 23 68 36 112
12 44 31 102 41 129 11 27 19 56 19 66 0 19 110 241 131 264 31 34 39 46 40
58 0 7 9 27 20 43 10 17 22 37 25 45 4 8 14 32 22 53 9 20 19 37 24 37 4 0 8
9 8 20 0 11 5 20 10 20 6 0 10 7 10 15 0 8 14 37 30 65 17 28 30 57 30 65 0 7
4 15 8 17 5 2 26 37 47 78 39 75 92 166 108 185 4 6 31 48 58 95 27 47 54 92
59 100 15 27 38 84 45 115 4 17 13 39 20 50 7 11 15 36 19 55 4 19 11 58 16
85 59 306 99 433 196 628 13 27 24 57 24 66 0 10 7 32 16 50 9 18 22 60 30 94
8 34 18 71 23 82 4 11 16 37 25 58 9 21 16 47 16 57 0 11 5 29 10 40 6 11 15
29 20 40 6 11 10 24 10 30 0 16 52 125 61 128 5 2 9 8 9 13 0 13 49 88 81 124
93 104 208 311 265 475 16 47 32 87 36 88 5 2 8 11 8 19 0 9 21 59 46 112 25
53 51 107 57 121 7 14 14 27 17 30 35 35 120 226 186 415 13 39 28 78 34 87 5
10 10 24 10 33 0 8 12 40 26 72 31 72 39 89 56 131 7 17 16 32 20 32 5 0 8 7
8 15 0 8 29 57 65 109 36 52 65 99 65 105 0 6 4 11 10 11 10 0 113 208 139
280 7 19 17 44 21 55 5 11 20 59 35 107 15 49 31 90 36 94 5 3 9 16 9 29 0 13
5 27 10 30 5 3 10 15 10 26 0 10 5 19 10 19 6 0 10 8 10 19 0 16 31 90 59 141
21 38 51 112 51 126 0 8 9 34 20 56 11 23 20 48 20 56 0 7 12 48 26 90 15 42
33 100 39 127 18 71 61 188 100 270 18 39 36 77 39 85 3 8 17 33 31 55 13 22
29 50 35 62 5 12 32 69 60 126 27 57 50 109 50 116 0 6 4 11 8 11 4 0 14 21
21 48 8 26 18 54 22 62 31 59 119 252 119 260 0 6 3 10 8 10 4 0 16 17 27 38
11 20 32 56 48 78 15 23 27 45 27 48 0 4 8 16 19 27 23 25 91 153 91 173 0 7
9 33 20 57 11 24 20 55 20 69 0 14 7 38 15 54 8 15 15 35 15 44 0 8 8 45 19
81 10 36 24 91 31 121 13 59 132 311 156 330 7 7 14 17 14 22 0 6 8 22 18 36
10 15 24 45 31 67 8 22 17 42 21 45 4 3 18 30 32 60 14 30 43 91 63 135 21 44
40 82 44 85 3 3 26 43 50 90 24 47 49 92 56 100 7 8 22 31 33 50 11 19 45 77
76 127 31 51 56 97 56 103 0 6 8 27 18 48 11 20 31 84 46 142 15 58 32 119 37
136 5 17 9 39 9 50 0 25 45 202 53 211 4 3 7 18 7 32 0 15 6 35 13 46 7 11 19
40 27 65 8 25 17 47 20 50 3 3 12 21 19 40 15 40 21 55 52 125 12 28 25 64 30
80 12 49 66 198 94 258 14 31 25 59 25 64 0 4 11 30 25 57 14 27 25 53 25 57
0 14 92 142 139 195 78 87 151 188 151 211 0 7 5 13 10 13 6 0 10 9 10 19 0
11 3 21 8 23 16 7 46 86 113 298 13 43 66 184 84 225 7 17 19 45 26 63 8 17
17 32 20 32 4 0 9 8 13 18 3 9 10 24 15 32 13 22 89 200 97 230 3 14 15 45 26
70 11 25 24 54 28 65 4 11 15 36 23 55 9 19 20 46 26 60 6 14 15 32 20 40 5 8
15 29 22 45 18 38 80 148 89 155 3 3 17 21 30 40 13 19 42 54 64 77 21 24 50
60 64 80 14 21 29 40 34 41 4 2 8 12 8 22 0 10 7 20 15 24 8 3 15 15 15 26 0
11 3 20 8 20 8 0 32 49 32 67 0 7 5 13 10 13 6 0 10 11 10 24 0 13 4 26 8 28
4 2 25 57 46 123 21 66 41 131 46 145 4 14 13 45 20 70 6 25 16 53 21 62 5 10
9 26 9 36 0 10 7 27 15 38 8 10 15 27 15 37 0 9 4 25 9 35 20 36 47 146 72
286 5 32 14 67 19 77 6 10 10 32 10 50 0 18 4 46 9 63 6 17 20 69 32 116 13
47 38 114 56 150 18 36 33 71 33 78 0 6 4 12 8 12 5 0 15 12 22 28 8 15 23 40
35 57 19 28 28 44 52 90 5 11 18 34 27 50 9 17 22 42 27 58 6 15 14 27 18 27
5 0 19 21 32 48 13 26 35 65 49 87 14 22 34 58 45 80 11 22 26 46 32 53 7 7
16 24 19 38 3 13 10 24 15 24 5 0 9 7 9 15 0 8 20 46 45 85 25 39 45 75 45 80
0 6 5 10 10 10 6 0 10 5 10 12 0 6 11 26 25 44 14 18 25 37 25 42 0 6 4 12 8
14 4 2 23 39 41 83 18 44 39 91 45 105 12 24 26 68 48 155 16 61 67 212 89
260 31 71 80 173 91 190 7 11 25 38 39 60 26 40 139 266 139 278 0 4 16 39 35
78 19 40 35 76 35 80 0 20 150 332 163 337 4 2 7 7 7 11 0 4 19 41 43 83 23
41 53 108 67 149 13 41 28 80 34 87 5 7 13 32 17 55 7 38 39 182 60 267 4 19
12 54 17 78 5 24 15 49 21 55 6 6 11 21 11 33 0 13 5 26 10 29 6 3 10 15 10
25 0 16 45 118 71 160 5 8 12 22 15 30 4 8 15 35 26 60 11 25 23 54 28 65 4
11 24 57 44 102 20 45 36 86 36 92 0 5 8 26 19 48 85 176 138 277 158 299 13
15 23 30 23 34 0 3 8 15 18 26 10 10 29 35 42 54 13 19 35 46 47 60 13 14 23
30 23 37 0 7 4 13 9 13 10 0 94 169 111 225 7 22 16 49 21 60 4 11 11 36 15
55 6 32 65 215 96 300 7 19 25 58 40 85 33 60 86 168 123 250 15 33 31 68 36
77 5 10 9 24 9 31 0 7 9 32 20 55 11 22 20 45 20 50 0 14 30 71 41 77 5 4 9
15 9 25 0 21 60 153 72 158 4 2 8 11 8 19 0 9 10 30 23 47 12 17 29 43 36 59
8 15 18 27 23 27 4 0 8 4 8 10 0 10 27 44 65 84 12 12 32 41 45 66 14 25 28
47 31 50 14 12 80 162 99 225 12 39 28 86 35 105 7 19 18 53 24 75 39 149 62
221 96 310 30 75 58 172 75 250 7 33 18 80 25 105 8 25 19 72 25 105 13 67 28
121 41 147 5 10 9 24 9 33 0 15 38 105 72 170 12 22 26 50 32 62 6 13 14 23
19 23 4 0 7 7 7 15 0 8 4 15 9 15 5 0 11 8 15 18 3 9 17 35 31 57 14 22 32 56
42 75 9 19 19 37 22 40 8 7 36 59 83 155 22 44 44 87 49 95 5 8 32 62 61 120
29 58 90 173 135 255 45 83 83 159 83 171 0 11 3 24 7 27 10 10 53 136 63 182
4 22 18 72 30 110 12 39 25 86 30 105 10 48 16 61 68 170 45 94 155 267 180
283 6 4 12 17 12 28 0 11 6 22 13 25 8 3 20 20 27 39 8 19 17 35 22 35 4 0 8
9 8 20 0 12 7 32 17 46 18 28 28 45 92 164 24 45 50 87 56 94 7 7 25 35 39 62
38 71 57 103 94 156 17 26 32 54 32 62 0 9 4 16 9 16 5 0 11 8 14 18 3 9 14
33 25 52 26 47 39 80 45 110 3 14 12 50 20 80 7 30 19 82 26 115 7 33 16 74
21 90 5 17 12 48 15 70 16 107 87 337 105 343 6 2 10 12 10 22 0 10 5 22 10
25 6 3 10 13 10 21 0 8 9 33 19 57 11 23 25 62 32 87 7 25 15 47 19 50 3 3 11
16 18 29 8 13 23 40 34 60 11 20 32 65 45 101 14 35 30 76 38 90 7 14 23 50
36 80 25 59 116 207 149 242 11 12 20 27 20 34 0 6 9 22 19 36 11 13 23 38 26
54 4 16 26 70 50 119 23 50 48 106 55 125 7 19 16 44 20 55 17 39 72 200 77
223 3 12 9 25 14 28 5 3 9 14 9 24 0 11 9 35 20 55 11 20 20 44 20 54 0 11 4
21 9 23 5 2 30 48 55 103 57 122 55 115 107 265 6 19 16 43 20 52 5 10 9 27 9
38 0 11 5 20 10 20 6 0 10 7 10 15 0 8 3 15 8 15 7 0 28 39 106 201 37 76 120
206 183 284 15 19 73 138 73 150 0 7 7 15 15 19 8 3 15 12 15 21 0 8 5 15 10
15 6 0 10 6 10 14 0 8 10 34 21 58 12 23 26 54 31 68 6 14 16 39 23 55 16 35
85 230 92 260 3 11 13 38 22 60 10 22 30 76 45 120 16 44 32 89 36 100 9 20
15 45 30 125 5 25 14 65 20 90 20 81 30 130 30 154 0 13 11 48 24 78 14 30 29
74 36 97 6 22 14 41 18 41 4 0 13 15 20 33 7 17 18 39 23 47 5 8 15 26 21 40
7 14 15 27 19 30 3 3 14 24 24 48 11 23 22 42 27 42 4 0 8 7 8 15 0 21 57 139
97 203 18 29 33 55 33 58 0 7 53 118 60 124 11 11 30 51 30 64 0 8 4 16 8 18
4 2 20 28 34 58 15 30 36 71 47 90 19 35 120 217 151 275 20 38 63 176 99 320
5 22 17 67 26 100 10 33 20 75 22 93 3 18 9 35 14 38 5 3 9 12 9 21 0 21 94
213 117 239 10 11 27 35 37 54 11 19 25 42 33 50 57 64 148 199 228 338 29 50
61 99 77 116 10 11 18 28 18 37 0 10 4 19 8 21 9 3 82 114 82 124 0 2 9 14 20
26 11 12 20 28 20 36 0 7 15 41 34 75 47 84 80 183 96 282 4 28 15 75 24 105
10 30 21 71 26 90 40 163 86 318 98 333 5 7 15 30 22 52 7 22 16 44 21 49 5 6
9 20 9 32 0 13 4 25 9 29 5 3 15 22 22 43 6 20 22 60 34 87 22 51 43 109 73
200 9 28 19 52 22 55 10 8 32 101 37 158 3 28 8 52 12 52 6 0 18 50 41 175 5
28 12 91 16 140 3 50 11 96 16 102 7 9 6 23 -2 43 -10 24 -10 33 0 45 9 10 9
23 1 47 -6 18 -15 83 -21 143 -29 307 -117 514 -295 688 -65 64 -74 71 -122
98 -21 11 -45 27 -53 33 -20 17 -109 57 -230 104 -70 27 -142 50 -235 74 -22
5 -50 14 -63 19 -13 5 -35 9 -50 9 -15 0 -47 6 -72 14 -40 12 -248 28 -510 41
-47 2 -130 9 -185 16 -63 8 -184 11 -325 9 -362 -6 -1503 2 -3927 26 -284 3
-423 1 -423 -6z m290 -384 c168 -1 339 1 380 3 179 9 3131 7 3305 -2 77 -4
181 -14 230 -22 203 -32 250 -36 426 -37 143 -1 195 3 234 15 125 40 219 51
420 50 136 -1 213 -9 230 -24 5 -5 17 -9 26 -9 10 0 30 -6 46 -14 31 -16 63
-30 108 -47 17 -7 32 -13 35 -15 3 -1 15 -5 28 -9 12 -4 22 -10 22 -14 0 -3
12 -12 28 -18 15 -7 39 -24 54 -38 15 -14 30 -25 33 -25 18 0 121 -122 172
-205 68 -109 82 -291 41 -505 -14 -69 -32 -137 -40 -150 -9 -14 -24 -52 -34
-85 -10 -33 -22 -62 -25 -65 -4 -3 -14 -34 -23 -70 -9 -36 -21 -74 -26 -85
-10 -23 -35 -176 -55 -340 -20 -168 -35 -253 -61 -335 -13 -41 -24 -83 -24
-93 0 -9 -4 -17 -10 -17 -5 0 -10 -8 -10 -17 0 -10 -9 -45 -20 -77 -11 -33
-20 -70 -20 -83 0 -12 -4 -23 -10 -23 -5 0 -10 -12 -10 -26 0 -14 -11 -58 -24
-97 -14 -40 -30 -92 -36 -117 -6 -25 -15 -54 -19 -65 -5 -11 -15 -36 -22 -55
-7 -19 -18 -39 -25 -45 -6 -5 -26 -37 -44 -70 -41 -76 -92 -147 -150 -207
-104 -110 -120 -129 -120 -143 0 -8 -7 -15 -15 -15 -8 0 -18 -12 -21 -27 -4
-16 -13 -37 -20 -48 -8 -11 -14 -27 -14 -37 0 -10 -4 -18 -10 -18 -5 0 -10 -9
-10 -20 0 -11 -4 -20 -10 -20 -5 0 -10 -9 -10 -19 0 -11 -4 -22 -9 -25 -11 -7
-36 -87 -56 -176 -21 -96 -30 -128 -60 -205 -68 -178 -115 -325 -115 -359 0
-13 -7 -37 -15 -52 -8 -16 -15 -40 -15 -53 0 -14 -9 -61 -21 -105 -57 -228
-98 -318 -206 -453 -29 -36 -53 -70 -53 -76 0 -5 -8 -17 -18 -26 -9 -9 -31
-36 -47 -61 -17 -25 -33 -46 -37 -48 -5 -2 -8 -9 -8 -16 0 -6 -11 -25 -25 -41
-51 -62 -87 -111 -102 -140 -9 -16 -19 -32 -22 -35 -13 -11 -51 -70 -51 -80 0
-5 -4 -10 -10 -10 -5 0 -10 -7 -10 -15 0 -8 -4 -15 -9 -15 -5 0 -11 -10 -15
-23 -3 -12 -14 -32 -26 -44 -11 -12 -20 -25 -20 -28 0 -3 -18 -37 -40 -76 -22
-39 -40 -77 -40 -84 0 -7 -5 -15 -10 -17 -6 -2 -22 -37 -36 -78 -20 -60 -27
-107 -35 -235 -6 -88 -14 -179 -19 -203 -6 -23 -10 -55 -10 -70 0 -15 -7 -49
-16 -77 -9 -27 -19 -63 -24 -80 -16 -63 -34 -120 -40 -125 -3 -3 -12 -21 -20
-40 -8 -19 -17 -37 -20 -40 -3 -3 -25 -43 -47 -90 -23 -47 -60 -115 -82 -152
-23 -37 -41 -72 -41 -77 0 -6 -4 -11 -10 -11 -5 0 -10 -5 -10 -11 0 -12 -55
-91 -110 -158 -11 -13 -20 -27 -20 -31 0 -4 -16 -25 -35 -46 -19 -21 -35 -43
-35 -49 0 -6 -9 -17 -20 -25 -11 -8 -20 -20 -20 -27 0 -7 -14 -27 -31 -46 -34
-37 -46 -57 -85 -137 -15 -30 -30 -57 -34 -60 -4 -3 -12 -21 -18 -40 -32 -100
-43 -144 -57 -235 -9 -55 -22 -127 -30 -160 -7 -33 -16 -76 -20 -95 -12 -71
-18 -95 -24 -105 -4 -5 -13 -30 -21 -55 -7 -25 -17 -49 -22 -54 -4 -6 -8 -15
-8 -22 0 -6 -20 -54 -44 -105 -24 -52 -51 -115 -60 -141 -9 -26 -20 -56 -25
-65 -5 -10 -13 -29 -19 -43 -5 -14 -23 -55 -41 -91 -17 -36 -31 -70 -31 -76 0
-6 -3 -13 -7 -15 -9 -3 -51 -68 -73 -112 -8 -15 -25 -38 -37 -50 -13 -11 -23
-26 -23 -31 0 -6 -12 -22 -27 -36 -16 -14 -42 -41 -59 -60 -18 -19 -42 -44
-55 -57 -13 -12 -28 -26 -34 -32 -5 -5 -27 -25 -47 -44 -21 -19 -38 -37 -38
-40 0 -3 -7 -14 -16 -25 -26 -29 -74 -149 -74 -182 0 -16 -4 -37 -9 -47 -15
-28 -38 -128 -62 -267 -6 -38 -22 -101 -34 -140 -12 -38 -28 -90 -35 -115 -7
-25 -16 -54 -20 -65 -10 -22 -26 -98 -35 -162 -4 -24 -11 -45 -16 -49 -5 -3
-9 -19 -9 -35 0 -54 -73 -301 -96 -323 -8 -8 -14 -22 -14 -30 0 -9 -4 -16 -10
-16 -5 0 -10 -9 -10 -20 0 -11 -4 -20 -10 -20 -5 0 -10 -7 -10 -15 0 -8 -4
-15 -10 -15 -5 0 -10 -7 -10 -15 0 -8 -4 -15 -10 -15 -5 0 -10 -4 -10 -10 0
-12 -57 -70 -69 -70 -5 0 -13 -9 -16 -20 -3 -11 -13 -20 -21 -20 -8 0 -14 -7
-14 -15 0 -8 -7 -15 -15 -15 -8 0 -20 -9 -27 -20 -7 -11 -18 -20 -25 -20 -7 0
-13 -6 -13 -14 0 -8 -9 -18 -20 -21 -11 -3 -20 -13 -20 -21 0 -8 -5 -14 -10
-14 -10 0 -70 -56 -70 -65 0 -2 -13 -19 -30 -37 -16 -18 -30 -38 -30 -45 0 -6
-6 -16 -14 -20 -8 -4 -21 -24 -30 -43 -8 -19 -20 -42 -25 -50 -5 -8 -12 -28
-16 -43 -3 -15 -9 -26 -13 -23 -5 3 -14 -16 -21 -42 -7 -26 -16 -56 -21 -67
-13 -33 -48 -148 -55 -182 -4 -18 -11 -33 -16 -33 -5 0 -9 -10 -9 -23 0 -12
-9 -48 -20 -80 -11 -31 -20 -77 -20 -101 0 -25 -4 -48 -10 -51 -5 -3 -10 -30
-11 -58 -1 -70 -45 -337 -60 -362 -3 -5 -12 -31 -19 -58 -7 -26 -17 -50 -21
-53 -5 -3 -9 -11 -9 -19 0 -11 -17 -44 -81 -155 -8 -14 -22 -32 -31 -41 -10
-9 -18 -20 -18 -24 0 -4 -20 -33 -45 -63 -25 -30 -45 -58 -45 -62 0 -5 -9 -12
-20 -15 -11 -3 -20 -13 -20 -21 0 -8 -4 -13 -9 -11 -5 1 -32 -22 -60 -50 -28
-29 -53 -53 -56 -53 -6 0 -83 -78 -142 -146 -29 -32 -63 -71 -76 -86 -13 -15
-32 -45 -42 -67 -10 -22 -21 -38 -25 -36 -5 3 -16 -18 -26 -45 -10 -28 -21
-50 -24 -50 -4 0 -13 -18 -20 -40 -7 -22 -16 -40 -20 -40 -4 0 -13 -27 -21
-60 -7 -33 -17 -60 -21 -60 -4 0 -8 -42 -8 -92 0 -51 -7 -142 -15 -203 -8 -60
-15 -133 -15 -162 0 -28 -4 -55 -10 -58 -5 -3 -10 -24 -10 -46 0 -21 -4 -39
-10 -39 -5 0 -10 -13 -10 -30 0 -16 -4 -30 -10 -30 -5 0 -10 -11 -10 -25 0
-14 -4 -25 -10 -25 -5 0 -10 -9 -10 -20 0 -11 -3 -20 -8 -20 -4 0 -16 -16 -26
-35 -11 -19 -23 -35 -28 -35 -4 0 -8 -9 -8 -20 0 -11 -4 -20 -9 -20 -5 0 -12
-8 -15 -17 -11 -32 -175 -213 -193 -213 -7 0 -13 -4 -13 -10 0 -14 -37 -50
-44 -42 -3 3 -6 -4 -6 -16 0 -12 -4 -22 -9 -22 -10 0 -101 -85 -101 -94 0 -4
-16 -22 -35 -40 -19 -19 -35 -39 -35 -45 0 -6 -4 -11 -9 -11 -5 0 -14 -13 -21
-30 -7 -16 -16 -30 -20 -30 -4 0 -15 -25 -25 -55 -11 -30 -23 -55 -27 -55 -4
0 -8 -7 -8 -15 0 -8 -4 -15 -8 -15 -5 0 -14 -22 -21 -50 -7 -27 -16 -50 -21
-50 -4 0 -11 -40 -14 -90 -4 -49 -11 -90 -15 -90 -4 0 -13 -74 -19 -164 -7
-90 -17 -179 -22 -197 -6 -19 -10 -53 -10 -76 0 -24 -4 -43 -10 -43 -5 0 -10
-18 -10 -39 0 -22 -5 -41 -11 -43 -5 -2 -13 -22 -16 -46 -3 -23 -10 -42 -14
-42 -5 0 -9 -11 -9 -25 0 -14 -4 -25 -10 -25 -5 0 -10 -11 -10 -25 0 -14 -4
-25 -10 -25 -5 0 -10 -11 -10 -25 0 -14 -4 -25 -8 -25 -5 0 -17 -27 -27 -60
-10 -33 -22 -60 -27 -60 -4 0 -8 -16 -8 -36 0 -19 -4 -33 -9 -30 -5 3 -12 -6
-15 -20 -10 -40 -40 -104 -48 -104 -5 0 -8 -9 -8 -20 0 -11 -4 -20 -10 -20 -5
0 -10 -5 -10 -12 0 -6 -11 -26 -25 -44 -14 -18 -25 -37 -25 -43 0 -6 -4 -11
-9 -11 -5 0 -14 -14 -21 -30 -7 -17 -15 -29 -17 -26 -5 5 -50 -40 -79 -78 -10
-14 -21 -23 -26 -20 -4 3 -8 -2 -8 -10 0 -9 -4 -16 -10 -16 -5 0 -10 -7 -10
-15 0 -8 -5 -15 -11 -15 -13 0 -33 -20 -42 -42 -3 -10 -11 -18 -17 -18 -5 0
-10 -5 -10 -11 0 -7 -8 -19 -19 -28 -20 -17 -47 -74 -100 -210 -12 -29 -21
-63 -21 -74 0 -21 -5 -39 -34 -132 -9 -27 -19 -76 -22 -107 -4 -32 -11 -58
-15 -58 -5 0 -9 -12 -9 -27 -1 -16 -7 -39 -15 -53 -8 -14 -14 -37 -15 -52 0
-16 -4 -28 -10 -28 -5 0 -10 -13 -10 -30 0 -16 -4 -30 -10 -30 -5 0 -10 -9
-10 -20 0 -11 -4 -20 -10 -20 -5 0 -10 -11 -10 -25 0 -14 -4 -25 -10 -25 -5 0
-10 -9 -10 -20 0 -11 -4 -20 -9 -20 -5 0 -13 -10 -17 -22 -3 -13 -22 -54 -40
-93 -19 -38 -34 -75 -34 -81 0 -18 -108 -222 -114 -216 -3 3 -6 0 -6 -7 0 -7
-14 -30 -30 -51 -16 -21 -30 -41 -30 -45 0 -7 -13 -23 -87 -101 -24 -25 -43
-49 -43 -55 0 -6 -4 -7 -10 -4 -5 3 -10 2 -10 -4 0 -9 -24 -37 -110 -128 -16
-18 -30 -37 -30 -43 0 -5 -4 -10 -10 -10 -5 0 -10 -8 -10 -18 0 -10 -6 -27
-14 -38 -8 -11 -17 -37 -21 -57 -4 -20 -13 -41 -21 -48 -8 -6 -14 -22 -14 -35
0 -14 -4 -32 -9 -42 -5 -9 -14 -37 -21 -62 -6 -25 -16 -58 -22 -75 -6 -16 -13
-49 -15 -72 -3 -24 -8 -43 -13 -43 -4 0 -10 -21 -13 -47 -13 -97 -27 -156 -72
-293 -25 -77 -48 -160 -52 -185 -3 -24 -9 -42 -13 -40 -5 3 -10 -16 -13 -43
-5 -54 -62 -278 -75 -296 -5 -6 -19 -38 -32 -71 -13 -33 -31 -67 -40 -75 -10
-8 -20 -25 -24 -37 -4 -13 -11 -23 -16 -23 -4 0 -33 -25 -65 -55 -31 -30 -63
-55 -71 -55 -8 0 -14 -4 -14 -10 0 -5 -7 -10 -15 -10 -8 0 -15 -4 -15 -10 0
-5 -7 -10 -15 -10 -8 0 -15 -4 -15 -10 0 -5 -9 -10 -20 -10 -11 0 -20 -7 -20
-15 0 -8 -9 -15 -20 -15 -11 0 -20 -7 -20 -15 0 -9 -12 -18 -30 -21 -20 -5
-30 -12 -30 -25 0 -10 -9 -21 -20 -24 -11 -3 -20 -10 -20 -15 0 -5 -9 -12 -20
-15 -11 -3 -20 -13 -20 -20 0 -8 -18 -43 -40 -77 -22 -35 -40 -69 -40 -76 0
-7 -4 -11 -9 -8 -5 3 -11 -4 -14 -17 -3 -12 -14 -53 -25 -92 -11 -38 -30 -125
-42 -192 -13 -68 -26 -123 -30 -123 -4 0 -11 -24 -14 -52 -4 -29 -11 -55 -17
-58 -5 -4 -14 -89 -19 -191 -12 -214 -31 -390 -41 -384 -3 3 -9 -18 -13 -45
-4 -28 -10 -50 -15 -50 -4 0 -13 -18 -20 -40 -6 -22 -16 -40 -21 -40 -6 0 -10
-5 -10 -10 0 -12 -4 -18 -49 -67 -16 -18 -33 -33 -38 -33 -5 0 -15 -9 -23 -20
-8 -11 -20 -20 -27 -20 -7 0 -13 -4 -13 -10 0 -5 -6 -10 -14 -10 -8 0 -16 -5
-18 -10 -2 -6 -12 -12 -23 -15 -11 -2 -33 -8 -50 -14 -70 -23 -110 -30 -113
-21 -2 6 -15 10 -28 10 -15 0 -24 6 -24 15 0 18 -5 18 -31 5 -16 -9 -19 -7
-19 10 0 11 -7 20 -15 20 -8 0 -15 9 -15 20 0 15 -7 20 -25 20 -21 0 -25 5
-25 29 0 16 -6 31 -15 35 -9 3 -15 18 -15 36 0 17 -7 38 -15 46 -9 9 -15 34
-15 59 0 25 -8 58 -19 77 -11 19 -22 64 -26 108 -4 41 -11 78 -16 81 -6 3 -13
76 -16 162 -3 87 -10 157 -15 157 -4 0 -8 99 -8 220 0 129 4 220 9 220 5 0 13
25 16 55 4 30 11 55 16 55 5 0 9 26 10 58 0 31 3 51 6 45 14 -37 23 -1 23 97
0 72 4 110 11 110 33 0 39 28 40 192 1 121 3 153 10 123 5 -22 11 -50 14 -62
3 -13 10 -23 15 -23 6 0 10 48 11 118 1 64 3 109 6 100 2 -10 11 -18 18 -18 7
0 16 -8 18 -17 3 -10 5 26 6 80 1 57 5 97 11 97 6 0 10 -7 10 -15 0 -8 5 -15
10 -15 6 0 10 25 10 55 0 48 2 55 20 55 11 0 20 -4 20 -8 0 -4 9 -8 20 -9 12
-1 20 4 20 13 0 10 7 13 24 8 18 -4 25 -1 29 13 3 12 5 9 6 -9 1 -35 21 -37
21 -2 0 23 3 25 30 19 23 -5 30 -3 30 9 0 10 9 16 25 16 14 0 25 5 25 10 0 6
9 10 20 10 15 0 20 7 20 25 0 21 5 25 29 25 45 0 61 10 61 36 0 20 5 24 30 24
27 0 30 3 30 30 0 23 5 30 19 30 25 0 31 56 31 308 l0 202 -25 0 -25 0 0 110
0 110 -30 0 -30 0 0 90 0 90 -35 0 -35 0 0 75 c0 73 -1 75 -24 75 -51 0 -56 8
-56 81 0 55 -3 69 -15 69 -8 0 -15 7 -15 15 0 11 -11 15 -40 15 -22 0 -40 5
-40 10 0 6 -7 10 -15 10 -12 0 -15 13 -15 60 l0 60 -37 0 c-74 0 -83 7 -83 61
l0 49 -39 0 c-22 0 -41 5 -43 12 -2 6 -31 13 -63 16 -78 6 -87 16 -85 99 1 38
1 97 1 132 l-1 64 -217 -6 c-225 -7 -293 -13 -293 -28 0 -5 15 -9 34 -9 47 0
66 -9 66 -30 0 -18 26 -30 66 -30 16 0 23 -7 26 -30 l5 -30 -59 0 c-68 0 -88
-13 -88 -60 0 -36 -20 -60 -49 -60 -12 0 -21 -6 -21 -15 0 -8 -4 -15 -10 -15
-6 0 -10 -35 -10 -85 l0 -85 -35 0 c-19 0 -35 -4 -35 -10 0 -5 -6 -10 -14 -10
-20 0 -26 -32 -26 -137 l0 -93 -75 0 c-41 0 -75 -4 -75 -9 0 -5 -13 -11 -30
-14 -30 -6 -30 -7 -30 -73 l0 -67 -82 6 c-46 4 -152 7 -235 7 l-153 0 0 55 0
55 -110 0 -110 0 0 65 0 65 -95 0 c-95 0 -95 0 -95 25 0 18 -5 25 -20 25 -18
0 -20 7 -20 75 l0 75 -160 0 -160 0 0 45 c0 38 3 45 20 45 15 0 20 -7 20 -25
l0 -25 125 0 c118 0 125 1 125 20 0 16 7 20 33 21 17 1 24 3 15 6 -14 4 -18
15 -18 59 l0 54 -170 0 c-107 0 -170 -4 -170 -10 0 -5 -4 -10 -10 -10 -6 0
-10 38 -10 95 l0 95 -70 0 c-40 0 -70 -4 -70 -10 0 -5 -18 -10 -40 -10 -39 0
-40 -1 -40 -35 0 -33 -2 -35 -35 -35 -32 0 -35 -2 -35 -30 0 -29 -2 -30 -45
-30 l-45 0 0 375 0 375 45 0 45 0 0 105 c0 87 3 105 15 105 10 0 15 11 15 35
0 34 1 35 40 35 22 0 40 5 40 10 0 6 6 10 14 10 21 0 26 78 26 473 l0 367 -75
0 c-60 0 -75 3 -75 15 0 8 7 15 15 15 8 0 15 4 15 9 0 5 47 12 105 16 58 4
105 11 105 16 0 5 20 9 45 9 l45 0 0 68 0 68 135 -4 135 -4 0 101 0 101 -145
0 -145 0 0 -24 c0 -24 -28 -36 -86 -36 -21 0 -24 -5 -24 -35 0 -31 -3 -35 -25
-35 -14 0 -25 -4 -25 -10 0 -6 -32 -10 -75 -10 -60 0 -75 -3 -75 -15 0 -12
-14 -15 -69 -15 -102 0 -101 1 -101 -91 0 -46 -4 -79 -10 -79 -5 0 -10 5 -10
10 0 6 -30 10 -70 10 l-70 0 0 -80 0 -80 -95 0 -95 0 0 -35 c0 -32 -2 -35 -30
-35 -20 0 -30 -5 -30 -15 0 -10 -10 -15 -30 -15 l-30 0 0 -140 c0 -87 -4 -140
-10 -140 -5 0 -10 18 -10 40 l0 40 -40 0 -40 0 0 -75 c0 -60 3 -75 15 -75 11
0 15 -12 15 -45 0 -43 1 -45 29 -45 27 0 28 -2 35 -61 10 -103 7 -689 -4 -689
-6 0 -10 -73 -10 -200 l0 -200 -39 0 c-36 0 -40 3 -46 30 -5 24 -12 30 -33 30
-15 0 -44 3 -64 6 l-38 7 0 -50 0 -50 43 8 c68 13 67 14 67 -49 l0 -59 30 5
c17 2 30 8 30 13 0 5 11 9 25 9 l25 0 0 -100 0 -100 -39 0 c-44 0 -51 12 -51
93 l0 47 -40 0 c-22 0 -40 5 -40 10 0 6 -20 10 -45 10 l-45 0 0 -54 c0 -30 -4
-58 -10 -61 -6 -4 -10 8 -10 29 l0 36 -50 0 c-27 0 -50 5 -50 10 0 6 -22 10
-50 10 -47 0 -50 2 -50 25 0 21 -5 25 -30 25 -29 0 -30 1 -30 50 l0 50 -70 0
-70 0 0 60 0 60 -40 0 -40 0 0 59 0 59 -35 6 -35 7 0 84 c0 75 -2 84 -20 90
-17 5 -20 15 -20 60 0 34 -5 59 -15 69 -11 10 -15 36 -15 88 0 62 -3 76 -20
88 -17 12 -20 26 -20 83 0 73 -11 107 -35 107 -11 0 -15 13 -15 50 0 49 -1 50
-30 50 -28 0 -30 3 -30 35 0 32 -2 35 -30 35 -23 0 -30 4 -30 20 0 16 -7 20
-30 20 -23 0 -30 4 -30 20 0 16 -7 20 -35 20 -24 0 -35 5 -35 15 0 10 -11 15
-35 15 -28 0 -35 4 -35 20 0 11 -4 20 -10 20 -5 0 -10 -4 -10 -8 0 -11 -73
-11 -81 0 -3 4 -25 10 -50 12 -24 3 -56 9 -70 15 -15 5 -30 7 -33 4 -3 -4 -6
-1 -6 5 0 7 -4 12 -10 12 -5 0 -10 -9 -10 -20 0 -22 -25 -28 -33 -7 -4 7 -8 3
-12 -10 -4 -13 -15 -23 -26 -23 -14 0 -19 -7 -19 -26 0 -21 -4 -25 -20 -21
-17 4 -20 0 -20 -34 0 -30 -3 -37 -15 -33 -12 5 -15 -5 -15 -56 0 -41 -5 -66
-15 -76 -8 -9 -15 -32 -15 -52 0 -80 -21 -618 -26 -639 -2 -13 -11 -23 -19
-23 -12 0 -15 -16 -15 -80 0 -64 -3 -80 -15 -80 -12 0 -15 -15 -15 -75 0 -60
-3 -75 -15 -75 -12 0 -15 -13 -15 -55 0 -41 -4 -55 -14 -55 -8 0 -17 6 -19 13
-3 6 -6 -12 -6 -42 -1 -43 -4 -52 -16 -47 -12 4 -15 -3 -15 -30 0 -31 -3 -35
-20 -29 -16 5 -20 2 -20 -19 0 -21 -5 -26 -25 -26 -18 0 -25 -5 -25 -20 0 -11
-4 -20 -10 -20 -5 0 -10 14 -10 30 0 17 -4 30 -10 30 -5 0 -10 -7 -10 -15 0
-11 -11 -15 -40 -15 -27 0 -40 -4 -40 -14 0 -20 -101 -29 -116 -10 -6 8 -23
14 -38 14 -14 0 -26 5 -26 11 0 6 -9 9 -20 6 -13 -3 -20 0 -20 10 0 9 -6 13
-15 9 -10 -4 -15 1 -15 15 0 33 -24 16 -31 -22 -4 -21 -7 -26 -8 -12 -1 16 -6
21 -16 17 -11 -5 -15 1 -15 20 0 32 -4 32 -32 4 l-23 -23 -5 40 c-5 37 -6 38
-14 15 -20 -58 -31 -40 -37 58 -5 90 -5 85 -7 -58 -2 -104 -5 -150 -12 -140
-13 20 -13 447 -1 435 6 -6 12 -37 14 -70 2 -35 4 -13 5 54 2 93 5 112 16 108
17 -7 21 34 35 348 5 110 14 223 21 250 6 28 14 74 17 103 3 28 9 52 14 52 5
0 9 18 9 40 0 22 4 40 10 40 5 0 12 16 16 35 3 19 10 32 15 29 5 -3 9 6 9 20
0 14 4 26 8 26 4 0 13 20 20 45 7 25 16 45 22 45 5 0 10 9 10 20 0 11 5 20 10
20 6 0 10 4 10 10 0 17 34 90 42 90 5 0 8 6 8 13 0 6 16 30 36 52 19 22 45 52
57 68 12 15 30 36 39 46 9 11 22 29 28 41 6 11 15 18 21 15 5 -4 9 -1 9 5 0
16 28 42 38 36 5 -3 14 11 21 30 11 30 21 38 42 36 4 -1 10 15 14 34 3 20 9
34 12 30 9 -8 31 19 39 48 3 14 10 24 14 21 4 -3 11 11 14 30 4 20 13 35 21
35 8 0 16 16 20 40 4 22 11 40 16 40 5 0 9 11 9 25 0 14 4 25 9 25 5 0 12 26
16 58 3 31 10 65 15 74 6 10 10 29 10 43 0 14 7 42 15 62 8 19 15 60 15 89 0
30 5 54 10 54 6 0 10 15 10 34 0 19 5 38 10 41 6 3 10 33 10 66 0 33 4 59 10
59 6 0 10 17 10 38 0 21 20 119 45 218 25 98 45 190 45 204 0 15 4 30 9 35 5
6 11 30 14 55 9 75 48 254 58 265 5 5 9 19 9 32 0 13 5 23 10 23 6 0 10 6 10
14 0 21 42 116 51 116 5 0 9 5 9 11 0 12 13 28 117 135 40 41 77 74 83 74 5 0
10 5 10 10 0 6 7 10 15 10 8 0 15 7 15 15 0 8 7 15 15 15 8 0 15 6 15 13 0 6
18 22 40 35 22 12 40 28 40 35 0 7 12 23 25 36 14 13 25 31 25 41 0 10 12 39
27 65 14 26 34 75 44 109 84 297 149 499 161 504 4 2 8 21 8 43 0 21 4 39 9
39 5 0 11 21 14 48 4 39 39 174 59 232 3 8 15 47 27 87 12 40 26 75 31 78 6 4
10 17 10 31 0 13 4 24 9 24 4 0 16 19 25 43 9 23 27 55 41 71 14 16 25 33 25
37 0 5 20 29 45 55 25 25 45 47 45 50 0 3 15 20 33 38 48 50 77 87 77 96 0 4
7 10 15 14 8 3 15 12 15 21 0 8 7 15 15 15 9 0 15 9 15 21 0 12 8 29 18 38 17
16 22 24 54 86 27 51 98 239 98 258 0 9 5 17 10 17 6 0 10 14 10 30 0 17 4 30
8 30 4 0 16 31 27 69 10 39 22 68 27 65 4 -3 8 10 8 30 0 19 5 36 10 38 11 3
17 33 66 338 28 179 53 294 80 363 8 20 14 49 14 62 0 14 4 25 8 25 10 0 42
65 42 85 0 8 5 15 10 15 6 0 10 9 10 20 0 11 5 20 10 20 6 0 10 11 10 25 0 14
5 25 10 25 6 0 10 11 10 25 0 14 4 25 10 25 5 0 12 11 16 25 3 14 10 25 15 25
5 0 9 7 9 15 0 8 4 15 9 15 4 0 14 20 21 45 7 24 16 42 21 39 5 -3 9 1 9 9 0
22 76 167 84 160 3 -3 6 5 6 20 0 14 3 27 8 29 8 3 73 100 92 137 7 13 22 34
35 45 12 12 30 36 40 55 9 19 26 43 36 54 10 12 19 26 19 32 0 7 9 22 20 35
11 13 20 29 20 37 0 7 5 13 10 13 6 0 10 9 10 20 0 11 4 20 9 20 4 0 14 27 21
60 7 33 17 63 21 66 5 3 9 15 9 26 0 12 4 35 10 52 5 17 17 67 26 111 42 207
100 415 115 415 5 0 9 8 9 18 0 11 9 29 20 42 11 13 20 31 20 42 0 10 5 18 10
18 6 0 10 7 10 16 0 14 36 101 61 146 5 10 9 25 9 33 0 8 5 15 10 15 6 0 10
12 10 26 0 14 4 23 10 19 6 -3 10 5 10 19 0 13 3 26 8 28 4 2 20 31 36 66 16
34 33 62 36 62 4 0 18 20 31 44 13 25 27 43 31 40 4 -3 12 6 19 18 16 30 156
167 163 160 3 -3 6 2 6 11 0 10 4 17 9 17 11 0 80 68 106 105 11 16 26 34 33
41 6 7 12 20 12 28 0 9 3 16 8 16 10 0 32 50 32 71 0 10 4 20 9 23 4 3 11 25
14 48 4 24 11 63 17 88 6 25 15 77 20 115 14 118 58 333 90 445 10 36 30 119
45 185 58 265 80 337 145 470 32 66 68 130 79 142 12 12 21 25 21 29 0 4 14
20 30 36 17 15 30 35 30 43 0 8 6 15 13 15 7 0 23 18 37 40 14 22 28 40 31 40
4 0 12 14 18 30 5 17 16 30 24 30 8 0 17 8 20 18 3 9 12 28 20 42 8 14 20 36
25 50 52 119 62 144 62 156 0 8 4 14 9 14 5 0 11 18 15 41 4 23 13 54 21 70 8
15 15 37 15 49 0 11 4 20 9 20 4 0 11 15 14 34 3 19 19 66 36 104 17 39 31 77
31 86 0 9 3 16 8 16 4 0 13 21 19 48 7 26 28 108 48 182 19 74 35 145 35 158
0 12 4 30 9 40 11 22 51 167 51 187 0 8 4 15 10 15 5 0 13 12 16 28 11 43 69
150 123 227 28 39 62 90 77 115 15 25 36 53 46 64 10 11 18 26 18 33 0 8 5 11
10 8 6 -3 10 0 10 8 0 7 8 22 18 33 10 10 27 34 37 52 11 17 23 32 27 32 4 0
8 6 8 14 0 8 11 24 25 37 13 13 25 29 25 36 0 6 3 13 8 15 15 6 120 174 178
283 32 61 62 112 66 113 4 2 8 16 8 32 0 16 5 30 11 32 12 4 12 3 34 233 30
315 37 371 57 445 11 41 22 85 25 98 3 12 8 22 12 22 4 0 14 23 21 51 8 27 18
52 22 55 4 3 8 14 8 25 0 10 4 19 10 19 5 0 13 12 16 28 4 15 14 43 24 62 110
226 145 290 170 320 16 19 34 40 40 47 5 7 10 17 10 23 0 5 5 10 10 10 6 0 10
7 10 15 0 8 5 15 10 15 6 0 10 7 10 16 0 8 5 12 10 9 6 -3 10 -2 10 4 0 6 10
21 23 34 31 33 87 98 87 102 0 2 20 24 44 50 25 25 57 67 72 93 15 26 34 53
41 60 7 7 29 66 49 130 19 64 46 146 60 182 13 36 24 73 24 82 0 9 5 20 10 23
6 3 10 14 10 24 0 34 102 265 122 277 5 3 8 12 8 20 0 9 12 31 27 50 14 20 36
56 48 82 12 26 28 54 36 62 17 18 66 98 94 155 11 22 23 42 28 43 4 2 7 12 7
23 0 10 4 19 10 19 5 0 17 14 26 32 9 18 23 38 31 46 7 8 21 28 30 45 9 18 19
34 22 37 3 3 19 24 35 48 16 23 33 42 37 42 5 0 9 7 9 15 0 8 5 15 10 15 6 0
10 4 10 10 0 5 30 41 68 79 37 38 74 78 82 89 8 10 40 36 70 57 30 21 69 48
85 61 28 20 73 48 134 80 13 7 27 17 30 21 9 14 128 68 201 93 116 38 250 50
590 49 173 0 353 4 400 9 47 5 157 7 245 4 88 -3 297 -6 465 -6z m-9968
-18638 c-4 -275 -2 -398 5 -398 21 0 25 -62 24 -438 0 -247 3 -381 9 -377 6 4
9 -25 9 -77 -2 -67 -3 -75 -9 -43 -5 27 -8 -5 -9 -92 -1 -107 -4 -133 -15
-133 -8 0 -17 6 -19 13 -3 6 -6 -9 -6 -35 -1 -36 -5 -48 -16 -48 -11 0 -15
-12 -15 -47 0 -62 -9 -93 -26 -93 -8 0 -14 -4 -14 -9 0 -4 -39 -16 -87 -26
-108 -21 -273 -32 -273 -18 0 6 -22 13 -50 17 -48 6 -50 8 -50 39 0 42 -21 88
-37 82 -8 -2 -13 4 -13 15 0 11 -4 20 -10 20 -5 0 -10 9 -10 20 0 11 -4 20
-10 20 -5 0 -10 14 -10 30 0 17 -4 30 -10 30 -5 0 -10 23 -10 50 0 28 -4 50
-10 50 -6 0 -10 59 -10 156 0 101 3 153 10 149 7 -4 10 55 10 169 0 111 -4
176 -10 176 -6 0 -10 42 -10 105 0 63 4 105 10 105 6 0 10 21 10 48 0 64 22
202 32 202 4 0 8 12 8 26 0 14 4 23 9 20 5 -3 12 10 15 29 4 19 11 35 16 35 6
0 10 7 10 15 0 8 5 15 10 15 6 0 10 6 10 14 0 7 11 25 25 40 14 15 25 34 25
42 0 7 9 14 20 14 13 0 20 7 20 20 0 10 9 24 20 30 11 6 20 19 20 28 0 10 16
26 35 36 19 11 35 23 35 28 0 5 4 7 8 4 10 -6 38 25 47 53 3 12 11 18 17 15 6
-4 14 0 19 7 6 10 9 3 10 -21 l1 -35 13 40 c8 22 14 33 15 25 1 -8 6 -4 10 10
l8 25 7 -22 c10 -31 25 -29 25 3 0 14 4 23 10 19 6 -3 11 6 12 22 1 15 4 3 8
-27 6 -46 7 -49 8 -17 1 20 7 37 12 37 6 0 10 13 10 30 0 36 21 32 37 -8 9
-24 11 -17 14 48 2 42 6 -7 9 -110 l6 -185 3 195 c1 120 6 187 11 175 6 -14 9
3 11 55 1 59 3 68 9 40 4 -19 5 -214 2 -432z m2818 306 l0 -46 43 6 c23 3 81
8 130 12 l87 7 0 -47 0 -46 53 -1 c28 0 46 -3 40 -6 -7 -2 -13 -13 -13 -24 0
-18 -9 -19 -180 -19 -173 0 -180 1 -180 20 0 11 -7 20 -15 20 -12 0 -15 15
-15 75 0 60 3 75 15 75 8 0 15 5 15 10 0 6 5 10 10 10 6 0 10 -21 10 -46z
m539 -130 c29 -6 31 -9 31 -50 0 -44 0 -44 -35 -44 -19 0 -35 -4 -35 -10 0 -5
-20 -10 -45 -10 l-45 0 0 60 0 60 49 0 c27 0 63 -3 80 -6z m-4492 -2373 c3 -9
19 -28 35 -43 l28 -27 0 25 c0 26 14 31 34 11 17 -17 31 -126 28 -217 -8 -203
-8 -195 11 -192 15 2 17 -6 17 -63 0 -58 -2 -65 -20 -65 -18 0 -20 -7 -20 -85
0 -84 0 -85 -25 -85 -25 0 -25 -1 -25 -85 0 -50 -4 -85 -10 -85 -6 0 -10 -26
-10 -59 0 -54 -2 -59 -20 -54 -18 5 -20 0 -20 -51 0 -49 -3 -56 -19 -56 -37 0
-51 -12 -51 -41 0 -16 -4 -29 -10 -29 -5 0 -10 4 -10 9 0 5 -12 6 -27 2 -23
-6 -29 -14 -31 -44 -2 -20 -7 -37 -12 -37 -24 0 -40 15 -40 37 0 20 -4 23 -20
18 -18 -6 -20 -2 -20 34 0 23 -4 41 -10 41 -5 0 -10 18 -10 40 0 31 -3 38 -15
34 -12 -5 -15 5 -15 55 0 34 -4 61 -10 61 -6 0 -10 40 -10 100 0 60 4 100 10
100 6 0 10 27 10 60 0 44 4 60 14 60 10 0 15 26 21 108 5 70 10 100 16 87 5
-12 8 14 8 70 1 52 5 84 10 77 5 -8 11 19 15 70 4 46 11 85 16 86 6 2 10 15
10 29 0 20 3 23 13 14 17 -14 27 -4 27 26 0 27 8 29 26 6 12 -16 13 -13 14 22
0 30 3 36 12 27 20 -20 38 -14 38 12 0 20 4 23 21 19 11 -3 23 -13 26 -22z
m-857 -1814 c0 -8 4 -7 10 3 8 12 12 12 18 2 5 -7 20 -14 33 -15 13 0 31 -9
41 -19 9 -11 18 -14 20 -9 6 19 29 -5 43 -45 13 -36 14 -37 15 -11 0 41 17 24
25 -25 13 -80 17 -360 6 -371 -6 -6 -11 -48 -11 -93 0 -61 -4 -83 -14 -87 -9
-4 -16 -27 -20 -64 -11 -118 -18 -153 -31 -153 -7 0 -16 -18 -19 -45 -4 -25
-11 -45 -17 -45 -5 0 -9 -9 -9 -20 0 -11 -4 -20 -10 -20 -5 0 -10 -7 -10 -15
0 -8 -4 -15 -10 -15 -5 0 -10 -7 -10 -16 0 -18 -23 -44 -39 -44 -6 0 -11 -7
-11 -15 0 -8 -6 -15 -14 -15 -8 0 -17 -11 -20 -25 -4 -17 -14 -26 -29 -27 -49
-3 -87 -18 -87 -34 0 -10 -12 -13 -45 -12 -34 2 -45 7 -45 20 0 10 -14 21 -37
29 -44 14 -63 31 -63 55 0 9 -9 25 -21 35 -12 10 -23 35 -26 58 -3 23 -10 41
-14 41 -5 0 -9 12 -9 26 0 14 -4 23 -9 20 -4 -3 -11 17 -14 44 -8 63 3 260 15
260 4 0 8 20 8 45 0 25 4 45 9 45 5 0 12 34 16 75 4 41 11 75 16 75 5 0 9 13
9 30 0 16 5 42 11 57 6 15 15 37 20 48 4 11 11 30 14 43 4 12 11 22 16 22 5 0
9 12 9 26 0 14 4 23 8 20 4 -2 14 9 21 25 7 16 17 27 22 23 5 -3 9 2 9 10 0
10 6 13 15 10 11 -5 15 1 15 21 0 15 4 24 10 20 6 -3 10 1 10 9 0 10 6 13 15
10 8 -4 15 -1 15 5 0 6 7 11 15 11 8 0 15 5 15 10 0 7 6 7 20 0 15 -8 20 -8
20 2 0 8 15 14 40 15 26 2 40 -2 40 -10z m7390 -185 c0 -15 6 -18 30 -14 19 3
30 10 31 21 1 13 2 13 6 -2 3 -12 10 -16 24 -12 15 5 19 1 19 -15 0 -16 5 -20
15 -16 9 3 15 0 15 -9 0 -8 5 -15 10 -15 6 0 10 -11 10 -25 0 -16 6 -25 15
-25 8 0 15 -9 15 -20 0 -11 5 -20 10 -20 6 0 10 -9 10 -21 0 -11 5 -17 10 -14
6 4 10 -15 10 -49 0 -31 5 -56 10 -56 13 0 13 -190 0 -224 -6 -17 -6 -26 0
-26 6 0 10 -99 10 -265 0 -146 -4 -265 -8 -265 -4 0 -13 -30 -19 -67 -7 -36
-16 -69 -21 -72 -5 -3 -12 -18 -16 -33 -3 -16 -11 -28 -16 -28 -6 0 -10 -7
-10 -15 0 -8 -4 -15 -9 -15 -5 0 -12 -13 -16 -30 -4 -16 -11 -30 -16 -30 -5 0
-9 -7 -9 -15 0 -8 -4 -15 -10 -15 -5 0 -10 -7 -10 -15 0 -8 -4 -15 -10 -15 -5
0 -10 -5 -10 -10 0 -6 -13 -24 -30 -40 -16 -16 -30 -34 -30 -40 0 -6 -13 -13
-29 -16 -17 -4 -31 -14 -34 -24 -3 -10 -29 -31 -58 -46 -30 -14 -57 -32 -61
-38 -5 -6 -8 0 -8 14 0 14 -4 20 -8 15 -4 -6 -19 -16 -34 -22 -24 -11 -28 -10
-28 3 0 13 -3 14 -13 5 -8 -6 -17 -8 -20 -4 -4 3 -7 0 -7 -7 0 -9 -5 -7 -15 6
-8 11 -15 14 -15 7 0 -18 -20 -16 -20 2 0 20 -9 19 -30 -5 -17 -20 -17 -20
-35 0 -14 16 -20 17 -27 8 -5 -9 -8 -2 -9 17 -1 17 -3 22 -6 13 -9 -35 -23
-17 -24 30 -1 26 -4 37 -6 24 -9 -45 -23 -9 -23 59 0 39 -4 69 -10 69 -5 0
-10 -4 -10 -10 0 -5 -4 -10 -10 -10 -6 0 -10 113 -10 318 0 306 1 318 20 332
17 12 20 26 20 96 0 64 3 83 15 88 11 4 15 21 15 66 0 47 3 60 15 60 11 0 15
12 15 45 0 33 4 45 15 45 11 0 15 11 15 40 0 33 3 40 20 40 15 0 20 7 20 25 0
16 6 25 15 25 10 0 15 10 15 30 0 23 4 30 20 30 13 0 20 7 20 20 0 11 7 20 15
20 8 0 15 9 15 20 0 17 5 19 25 14 21 -5 25 -3 25 17 0 33 15 53 34 46 10 -4
16 -1 16 8 0 11 11 15 40 15 28 0 40 4 40 14 0 14 21 22 68 25 15 1 22 -5 22
-17z m-805 -2232 c35 0 55 -33 55 -92 0 -37 5 -62 15 -72 8 -8 15 -19 15 -24
0 -6 5 -12 11 -14 18 -6 19 -490 2 -495 -7 -3 -13 -16 -13 -29 0 -13 -4 -24
-9 -24 -5 0 -12 -20 -15 -45 -5 -29 -12 -45 -22 -45 -8 0 -14 -9 -14 -20 0
-11 -4 -20 -10 -20 -5 0 -10 -11 -10 -24 0 -13 -7 -26 -15 -30 -8 -3 -15 -12
-15 -19 0 -8 -6 -20 -14 -26 -8 -7 -17 -27 -20 -47 -4 -19 -11 -32 -17 -29 -5
4 -9 -3 -9 -14 0 -11 -9 -22 -19 -26 -10 -3 -22 -16 -25 -30 -7 -27 -77 -58
-84 -36 -4 13 -32 15 -32 2 0 -16 -24 -7 -50 19 -22 22 -24 23 -31 4 -6 -16
-8 -15 -8 8 -1 17 -8 29 -21 33 -11 3 -20 12 -20 20 0 8 -9 17 -20 20 -14 4
-20 15 -20 36 0 19 -5 29 -15 29 -12 0 -15 13 -15 55 0 30 -4 55 -10 55 -5 0
-10 -4 -10 -10 0 -5 -4 -10 -10 -10 -6 0 -10 45 -10 115 0 70 -4 115 -10 115
-5 0 -10 16 -10 35 0 19 5 35 10 35 6 0 10 38 10 95 0 57 4 95 10 95 6 0 10
23 10 50 0 28 5 50 10 50 6 0 10 11 10 25 0 18 4 23 15 19 12 -5 15 4 15 50 0
49 2 56 20 56 17 0 20 7 20 44 0 39 3 45 23 48 14 2 23 11 25 26 3 17 10 22
33 22 20 0 29 5 29 16 0 25 26 44 59 44 27 0 31 3 31 28 0 28 2 29 78 43 l77
14 3 -62 c2 -47 7 -63 17 -63z m-7718 -142 c-2 -13 -4 -5 -4 17 -1 22 1 32 4
23 2 -10 2 -28 0 -40z m43 7 c0 -33 -4 -45 -15 -45 -11 0 -15 12 -15 45 0 33
4 45 15 45 11 0 15 -12 15 -45z m90 -102 c0 -5 -5 -15 -10 -23 -8 -12 -10 -11
-10 8 0 12 5 22 10 22 6 0 10 -3 10 -7z m6640 -1802 c0 -5 11 -12 25 -15 14
-4 25 -11 25 -16 0 -6 9 -10 20 -10 16 0 20 -7 20 -35 0 -19 5 -35 10 -35 6 0
10 -11 10 -25 0 -14 5 -25 10 -25 6 0 10 -13 10 -30 0 -20 5 -30 15 -30 13 0
15 -22 15 -140 0 -118 -2 -140 -15 -140 -11 0 -15 -11 -15 -40 0 -22 -4 -40
-10 -40 -5 0 -10 -16 -10 -35 0 -19 -4 -35 -10 -35 -5 0 -10 -15 -10 -34 0
-26 -5 -36 -20 -41 -15 -5 -20 -15 -20 -41 0 -19 -5 -34 -11 -34 -14 0 -39
-26 -39 -40 0 -17 -28 -42 -40 -35 -5 3 -10 -1 -10 -9 0 -12 -5 -14 -24 -6
-20 7 -26 6 -29 -8 -3 -10 -5 -7 -6 9 -1 21 -7 28 -31 33 -18 3 -30 12 -30 21
0 9 -9 15 -25 15 -23 0 -25 4 -25 45 0 33 -4 45 -15 45 -12 0 -15 13 -15 56 0
47 -3 55 -16 50 -14 -5 -15 13 -12 171 2 130 6 177 16 181 7 2 12 20 12 43 0
28 4 39 15 39 9 0 15 9 15 25 0 16 6 25 15 25 8 0 15 9 15 20 0 11 5 20 10 20
6 0 10 9 10 20 0 15 7 20 30 20 25 0 30 4 35 34 7 33 8 34 56 34 27 1 49 -3
49 -7z"/>
<path d="M24455 65133 c-16 -2 -45 -6 -62 -9 l-33 -5 0 -213 c0 -213 0 -214
23 -220 12 -3 38 -6 58 -6 28 0 38 -5 42 -20 5 -18 14 -20 91 -20 l86 0 0 250
0 250 -87 -1 c-49 -1 -101 -4 -118 -6z"/>
<path d="M23428 63833 l-58 -4 0 -89 c0 -73 -3 -90 -15 -90 -11 0 -15 12 -15
45 l0 45 -59 0 c-44 0 -60 -4 -65 -16 -3 -9 -6 -67 -6 -131 l0 -115 80 4 80 3
0 -157 0 -158 85 0 c69 0 85 -3 85 -15 0 -13 21 -15 125 -15 l125 0 0 225 c0
193 -2 225 -15 225 -8 0 -15 5 -15 10 0 6 7 10 15 10 12 0 15 15 15 75 l0 75
-125 0 -125 0 0 40 c0 37 -2 40 -27 38 -16 -1 -54 -3 -85 -5z"/>
<path d="M25968 63153 c-10 -2 -18 -11 -18 -19 0 -9 -11 -14 -34 -14 -39 0
-46 -12 -46 -73 0 -29 3 -38 9 -28 7 11 10 4 13 -24 3 -36 6 -40 39 -48 l36
-8 6 -65 c6 -74 10 -83 32 -61 22 23 45 10 45 -24 0 -16 5 -29 10 -29 6 0 10
-30 10 -69 0 -39 3 -72 8 -75 4 -2 44 -2 89 1 l82 6 3 41 3 41 50 3 c28 2 54
7 59 12 4 4 5 27 1 49 -5 31 -11 41 -26 41 -10 0 -19 7 -19 15 0 8 -4 15 -10
15 -5 0 -10 16 -10 35 0 31 -3 35 -25 35 -23 0 -25 4 -25 44 0 25 -4 48 -10
51 -5 3 -10 20 -10 37 0 28 -2 30 -27 25 -16 -3 -38 -8 -50 -12 -21 -7 -23 -4
-23 29 0 33 -2 36 -30 36 -27 0 -30 -3 -30 -30 0 -23 -5 -30 -19 -30 -11 0
-26 -3 -35 -6 -13 -5 -16 3 -16 50 0 31 -3 55 -7 55 -5 -1 -16 -3 -25 -6z"/>
</g>
</svg>
